# xmcd
#
# Track frame offsets:
#	150
#	19514
#	36964
#	56553
#	72172
#	94986
#	115723
#	131116
#	144009
#	162924
#	189406
#	203364
#	218481
#	233647
#	268065
#	288111
#	303400
#	320719
#
# Disc length: 4601 seconds
#
# Revision: 5
# Processed by: cddbd v1.5.2PL0 Copyright (c) Steve Scherf et al.
# Submitted via: EZCDAudioConverter 7.0.6.1
#
DISCID=f611f712
DTITLE=The Sound - From The Lion's Mouth
DYEAR=2014
DGENRE=
TTITLE0=Winning
TTITLE1=Sense Of Purpose
TTITLE2=Contact The Fact
TTITLE3=Skeletons
TTITLE4=Judgement
TTITLE5=Fatal Flaw
TTITLE6=Possession
TTITLE7=The Fire
TTITLE8=Silent Air
TTITLE9=New Dark Age
TTITLE10=Point Of No Return
TTITLE11=Hot House
TTITLE12=Coldbeat
TTITLE13=New Dark Age [Live]
TTITLE14=Fatal Flaw [BBC Session November 1981]
TTITLE15=Skeletons [BBC Session November 1981]
TTITLE16=Hothouse [BBC Session November 1981]
TTITLE17=New Dark Age [BBC Session November 1981]
EXTD=
EXTT0=
EXTT1=
EXTT2=
EXTT3=
EXTT4=
EXTT5=
EXTT6=
EXTT7=
EXTT8=
EXTT9=
EXTT10=
EXTT11=
EXTT12=
EXTT13=
EXTT14=
EXTT15=
EXTT16=
EXTT17=
PLAYORDER=
